# AST/ASF file generated using VICON BodyLanguage
# -----------------------------------------------
:version 1.10
:name VICON
:units
  mass 1.0
  length 0.45
  angle deg
:documentation
   .ast/.asf automatically generated from VICON data using
   VICON BodyBuilder and BodyLanguage model FoxedUp or BRILLIANT.MOD
:root
   order TX TY TZ RX RY RZ
   axis XYZ
   position 0 0 0  
   orientation 0 0 0 
:bonedata
  begin
     id 1 
     name lhipjoint
     direction 0.602128 -0.715006 0.355257 
     length 2.21237 
     axis 0 0 0  XYZ
  end
  begin
     id 2 
     name lfemur
     direction 0.34202 -0.939693 0  
     length 6.71649  
     axis 0 0 20  XYZ
    dof rx ry rz
    limits (-160.0 20.0)
           (-70.0 70.0)
           (-60.0 70.0)
  end
  begin
     id 3 
     name ltibia
     direction 0.34202 -0.939693 0   
     length 6.97123   
     axis 0 0 20   XYZ
    dof rx
    limits (-10.0 170.0)
  end
  begin
     id 4 
     name lfoot
     direction 0.0655697 -0.180151 0.981451   
     length 1.80924   
     axis -90 7.62852e-016 20   XYZ
    dof rx rz
    limits (-45.0 90.0)
           (-70.0 20.0)
  end
  begin
     id 5 
     name ltoes
     direction 1.53545e-011 -4.21827e-011 1   
     length 0.916331   
     axis -90 7.62852e-016 20   XYZ
    dof rx
    limits (-90.0 20.0)
  end
  begin
     id 6 
     name rhipjoint
     direction -0.625414 -0.698792 0.347201   
     length 2.2637  
     axis 0 0 0  XYZ 
  end
  begin
     id 7 
     name rfemur
     direction -0.34202 -0.939693 0   
     length 7.07595   
     axis 0 0 -20   XYZ
    dof rx ry rz
    limits (-160.0 20.0)
           (-70.0 70.0)
           (-70.0 60.0)
  end
  begin
     id 8 
     name rtibia
     direction -0.34202 -0.939693 0   
     length 7.22924   
     axis 0 0 -20   XYZ
    dof rx
    limits (-10.0 170.0)
 end
 begin
     id 9 
     name rfoot
     direction -0.0766747 -0.210662 0.974547   
     length 1.98482  
     axis -90 -7.62852e-016 -20   XYZ
    dof rx rz
    limits (-45.0 90.0)
           (-20.0 70.0)
  end
  begin
     id 10 
     name rtoes
     direction -1.53532e-011 -4.21867e-011 1   
     length 0.999842   
     axis -90 -7.62852e-016 -20   XYZ
    dof rx
    limits (-90.0 20.0)
  end
  begin
     id 11 
     name lowerback
     direction -0.0224668 0.997354 -0.0691422   
     length 2.09945   
     axis 0 0 0   XYZ
    dof rx ry rz
    limits (-20.0 45.0)
           (-30.0 30.0)
           (-30.0 30.0)
  end
  begin
     id 12 
     name upperback
     direction 0.0134698 0.998451 -0.0539888   
     length 2.09758   
     axis 0 0 0   XYZ
    dof rx ry rz
    limits (-20.0 45.0)
           (-30.0 30.0)
           (-30.0 30.0)
  end
  begin
     id 13 
     name thorax
     direction 0.0241905 0.99948 -0.0213333   
     length 2.10428   
     axis 0 0 0   XYZ
    dof rx ry rz
    limits (-20.0 45.0)
           (-30.0 30.0)
           (-30.0 30.0)
  end
  begin
     id 14 
     name lowerneck
     direction -0.00866847 0.995978 0.0891737   
     length 1.3959   
     axis 0 0 0   XYZ
    dof rx ry rz
    limits (-20.0 45.0)
           (-30.0 30.0)
           (-30.0 30.0)
  end
  begin
     id 15 
     name upperneck
     direction 0.0680679 0.992203 0.104404   
     length 1.39452   
     axis 0 0 0   XYZ
    dof rx ry rz
    limits (-20.0 45.0)
           (-30.0 30.0)
           (-30.0 30.0)
  end
  begin
     id 16
     name head
     direction 0.0242216 0.999358 0.0264054  
     length 1.40433  
     axis 0 0 0   XYZ
    dof rx ry rz
    limits (-20.0 45.0)
           (-30.0 30.0)
           (-30.0 30.0)
  end
  begin
     id 17 
     name lclavicle
     direction 0.929368 0.362991 -0.0671771  
     length 3.04887  
     axis 0 0 0   XYZ
    dof ry rz
    limits (-20.0 10.0)
           (0.0 20.0)
  end
  begin
     id 18 
     name lhumerus
     direction 1 -4.48967e-011 -7.13741e-028   
     length 4.77195   
     axis -180 -30 -90   XYZ
    dof rx ry rz
    limits (-60.0 90.0)
           (-90.0 90.0)
           (-90.0 90.0)
  end
  begin
     id 19
     name lradius
     direction 1 -4.48977e-011 3.60404e-027   
     length 2.98444   
     axis -180 -30 -90   XYZ
    dof rx
    limits (-10.0 170.0)
  end
  begin
     id 20
     name lwrist
     direction 1 -4.48997e-011 7.54877e-027   
     length 1.49222   
     axis -7.18178e-015 90 90   XYZ
    dof ry
    limits (-180.0 0.0)
 end
  begin
     id 21 
     name lhand
     direction 1 -4.489e-011 1.51105e-026   
     length 0.992285   
     axis -9.63605e-015 90 90   XYZ
    dof rx rz
    limits (-90.0 90.0)
           (-45.0 45.0)
  end
  begin
     id 22 
     name lfingers
     direction 1 -4.48998e-011 3.01948e-026   
     length 0.800006   
     axis -1.92718e-014 90 90   XYZ
    dof rx
    limits (0.0 90.0)
  end
  begin
     id 23
     name lthumb
     direction 0.707107 -6.34881e-011 0.707107   
     length 1.14865   
     axis -90 45 -3.53137e-014   XYZ
    dof rx rz
    limits (-45.0 45.0)
           (-45.0 45.0)
  end
  begin
     id 24 
     name rclavicle
     direction -0.945672 0.324529 0.0196374   
     length 3.4236  
     axis 0 0 0   XYZ 
    dof ry rz
    limits (-10.0 20.0)
           (-20.0 0.0)
  end
  begin
     id 25 
     name rhumerus
     direction -1 -4.4896e-011 1.02757e-029  
     length 4.62052   
     axis -180 30 90   XYZ
    dof rx ry rz
    limits (-90.0 60.0)
           (-90.0 90.0)
           (-90.0 90.0)
  end
  begin
     id 26 
     name rradius
     direction -1 -4.48982e-011 3.85962e-027   
     length 2.95332   
     axis -180 30 90   XYZ
    dof rx
    limits (-10.0 170.0)
  end
  begin
     id 27 
     name rwrist
     direction -1 -4.48961e-011 7.55118e-027   
     length 1.47666   
     axis -7.18178e-015 -90 -90   XYZ
    dof ry
    limits (-180.0 0.0)
  end
  begin
     id 28
     name rhand
     direction -1 -4.48984e-011 1.50994e-026   
     length 0.990956   
     axis -9.63605e-015 -90 -90   XYZ
    dof rx rz
    limits (-90.0 90.0)
           (-45.0 45.0)
  end
  begin
     id 29
     name rfingers
     direction -1 -4.4892e-011 3.02158e-026   
     length 0.798934   
     axis -1.92718e-014 -90 -90   XYZ
    dof rx
    limits (0.0 90.0)
  end
  begin
     id 30
     name rthumb
     direction -0.707107 -6.34916e-011 0.707107   
     length 1.14711   
     axis -90 -45 3.53137e-014   XYZ
    dof rx rz
    limits (-45.0 45.0)
           (-45.0 45.0)
  end
:hierarchy
  begin
    root lhipjoint rhipjoint lowerback
    lhipjoint lfemur
    lfemur ltibia
    ltibia lfoot
    lfoot ltoes
    rhipjoint rfemur
    rfemur rtibia
    rtibia rfoot
    rfoot rtoes
    lowerback upperback
    upperback thorax
    thorax lowerneck lclavicle rclavicle
    lowerneck upperneck
    upperneck head
    lclavicle lhumerus
    lhumerus lradius
    lradius lwrist
    lwrist lhand lthumb
    lhand lfingers
    rclavicle rhumerus
    rhumerus rradius
    rradius rwrist
    rwrist rhand rthumb
    rhand rfingers
  end

#!OML:ASF H:\ManfredObstacles\Project 1\Capture day 1\Session 1\Male.ASF
:FULLY-SPECIFIED
:DEGREES
273
root 11.2871 16.1952 6.79428 11.1717 89.0067 4.59598
lowerback -10.87 0.38251 -4.51096
upperback 1.86414 1.30025 -1.78253
thorax 8.04622 0.479301 0.880366
lowerneck -1.33016 -1.73374 -5.65315
upperneck 0.852579 -2.27967 10.9933
head 0.73382 -1.05219 4.63804
rclavicle -1.03368e-014 1.19271e-014
rhumerus -34.4751 -14.7331 -81.258
rradius 32.2691
rwrist 26.2418
rhand -0.359918 -4.59766
rfingers 7.12502
rthumb 25.2456 -32.9475
lclavicle -1.03368e-014 1.19271e-014
lhumerus -37.6286 34.8009 64.575
lradius 12.7368
lwrist -50.0759
lhand -9.7241 6.9992
lfingers 7.12502
lthumb 16.2493 36.3383
rfemur -5.3922 -4.04598 21.385
rtibia 41.7996
rfoot -17.157 6.80119
rtoes -1.95869
lfemur -25.8897 -0.200468 -20.9467
ltibia 23.0323
lfoot 3.67181 -12.221
ltoes -4.50588
274
root 11.4667 16.2133 6.7433 39.3379 88.6754 32.6922
lowerback -10.8416 0.289099 -5.20905
upperback 1.78097 1.27071 -1.80072
thorax 7.93099 0.438287 1.24725
lowerneck -1.35178 -1.73021 -5.70327
upperneck 0.913464 -2.27993 10.7933
head 0.754714 -1.05447 4.5749
rclavicle 2.78299e-015 -6.36111e-015
rhumerus -34.9536 -13.9552 -81.1272
rradius 32.1693
rwrist 26.1743
rhand 0.374098 -4.72271
rfingers 7.12502
rthumb 25.9486 -32.9715
lclavicle 2.78299e-015 -6.36111e-015
lhumerus -36.3062 31.7194 67.4768
lradius 13.6208
lwrist -45.8834
lhand -9.48264 7.19825
lfingers 7.12502
lthumb 16.4818 36.5182
rfemur -7.63999 -5.47623 20.1361
rtibia 46.3072
rfoot -13.2828 7.03577
rtoes -0.167387
lfemur -25.2073 0.889206 -22.1389
ltibia 22.9359
lfoot 3.472 -13.3512
ltoes -2.98063
275
root 11.6413 16.2287 6.70156 25.9786 88.6823 19.4558
lowerback -10.5534 0.300567 -4.99097
upperback 1.77532 1.21634 -1.60881
thorax 7.76054 0.419021 1.31536
lowerneck -1.38486 -1.68298 -5.83787
upperneck 0.826727 -2.20762 10.8249
head 0.728435 -1.01966 4.6148
rclavicle 5.66536e-015 5.56597e-015
rhumerus -35.3916 -13.0073 -81.1929
rradius 32.1679
rwrist 26.1521
rhand 0.928798 -4.79088
rfingers 7.12502
rthumb 26.4797 -32.9608
lclavicle 5.66536e-015 5.56597e-015
lhumerus -35.2551 28.7654 70.0221
lradius 14.7663
lwrist -41.9651
lhand -9.14438 7.35246
lfingers 7.12502
lthumb 16.8075 36.645
rfemur -9.77176 -6.32818 19.9372
rtibia 50.6778
rfoot -9.0648 7.32059
rtoes 6.81456
lfemur -24.2649 1.76974 -22.1733
ltibia 22.6317
lfoot 3.17315 -14.1848
ltoes -2.15019
276
root 11.8155 16.2449 6.65801 20.2846 88.6354 13.9856
lowerback -10.1826 0.281698 -4.83372
upperback 1.83195 1.13821 -1.5119
thorax 7.61257 0.387198 1.31218
lowerneck -1.38763 -1.61975 -5.99772
upperneck 0.625024 -2.1045 11.0243
head 0.659384 -0.969608 4.72218
rclavicle 0 2.38542e-015
rhumerus -35.8093 -12.7269 -81.1251
rradius 32.335
rwrist 26.7475
rhand 1.25733 -4.51599
rfingers 7.12502
rthumb 26.7941 -32.6381
lclavicle 0 2.38542e-015
lhumerus -34.3813 25.8187 72.2531
lradius 15.9975
lwrist -38.3178
lhand -8.88392 7.20561
lfingers 7.12502
lthumb 17.0582 36.4767
rfemur -11.8667 -7.42535 19.6493
rtibia 54.6012
rfoot -5.89535 6.51703
rtoes 4.71227
lfemur -23.1934 2.37138 -22.3078
ltibia 22.3465
lfoot 2.90654 -14.8899
ltoes -0.714119
277
root 11.9838 16.2611 6.61959 38.6924 88.4941 32.416
lowerback -10.0419 0.120884 -5.33766
upperback 1.88466 0.984599 -1.52533
thorax 7.59229 0.291015 1.5541
lowerneck -1.50237 -1.56977 -6.14176
upperneck 0.488171 -2.02091 11.0961
head 0.630895 -0.926933 4.77878
rclavicle -1.03368e-014 7.95139e-016
rhumerus -36.1371 -12.0425 -81.1841
rradius 32.5501
rwrist 26.8597
rhand 1.20584 -4.11617
rfingers 7.12502
rthumb 26.7448 -32.2458
lclavicle -1.03368e-014 7.95139e-016
lhumerus -33.609 22.9429 74.3758
lradius 17.2377
lwrist -34.9746
lhand -8.89736 7.06802
lfingers 7.12502
lthumb 17.0452 36.3402
rfemur -14.0738 -8.81262 18.7206
rtibia 58.2638
rfoot -4.50937 5.30839
rtoes 6.94362
lfemur -22.3727 2.90763 -23.0835
ltibia 22.0937
lfoot 2.78337 -15.7473
ltoes 0.644852
